<svg xmlns="http://www.w3.org/2000/svg" xmlns:xlink="http://www.w3.org/1999/xlink" width="31.95" height="31.83" viewBox="0 0 31.95 31.83">
  <defs>
    <clipPath id="clip-path">
      <rect width="31.95" height="31.83" fill="none"/>
    </clipPath>
  </defs>
  <g id="Component_17_1" data-name="Component 17 – 1" transform="translate(0 0)" clip-path="url(#clip-path)">
    <path id="Path_13848" data-name="Path 13848" d="M88.154,41.227a15.974,15.974,0,0,0-9.048,30.585,1.1,1.1,0,0,0,.368,0A1.126,1.126,0,0,0,80.6,70.687V63.241a1.1,1.1,0,0,0-1.126-1.126,1.126,1.126,0,0,0-.8.346l-1.147,1.212a9.892,9.892,0,0,1,5-16.71,8.767,8.767,0,0,1,1.991-.216,10.022,10.022,0,0,1,2.987.476.953.953,0,0,0,.346,0,1.1,1.1,0,0,0,1.126-1.1V42.2a1.1,1.1,0,0,0-.844-1.082" transform="translate(-68.538 -40.805)" fill="#fbb019"/>
    <path id="Path_13849" data-name="Path 13849" d="M84.863,41.742a.909.909,0,0,0-.519-.152,1.126,1.126,0,0,0-1.126,1.126v7.749a1.126,1.126,0,0,0,1.926.779l.563-.606a9.784,9.784,0,0,1,1.407,5.974,10.022,10.022,0,0,1-7.186,8.658,9.633,9.633,0,0,1-2.706.39,9.481,9.481,0,0,1-1.277,0,1.126,1.126,0,0,0-1.126,1.126v3.831a1.1,1.1,0,0,0,1.039,1.1h1.364A16,16,0,0,0,84.863,41.7" transform="translate(-61.221 -39.89)" fill="#0097d0"/>
  </g>
</svg>
